<svg width="1em" height="1em" viewBox="0 0 24 24" fill="none" xmlns="http://www.w3.org/2000/svg">
<path d="M0.0779321 6.14296C-0.00107518 6.26298 -0.0177083 6.31535 0.0176371 6.33063C0.0280328 6.33281 0.109119 6.50302 0.196443 6.70815C0.285846 6.91109 0.389803 7.15332 0.429307 7.24279C0.554055 7.51993 0.595638 7.62249 0.612271 7.67487C0.620587 7.70324 0.720386 7.93237 0.83266 8.1855C0.944933 8.43646 1.03849 8.64595 1.03849 8.65032C1.03849 8.65468 1.11958 8.8358 1.2173 9.05402C1.31502 9.27225 1.42106 9.52102 1.45432 9.60612C1.48551 9.69341 1.62689 10.0186 1.76619 10.3306C2.08638 11.0464 2.23816 11.3955 2.28598 11.5199C2.32548 11.6247 2.64775 12.3601 2.79745 12.6918L2.88893 12.8947L2.89101 17.7938L2.97417 17.8854L3.05734 17.9793H4.59174L4.67491 17.8854L4.75807 17.7938L4.76015 12.9515L4.83084 12.7856C4.87035 12.6961 4.97223 12.4539 5.05955 12.251C5.14479 12.0458 5.31736 11.6465 5.44419 11.3628C5.56894 11.0769 5.72487 10.7191 5.78517 10.5663C5.84754 10.4135 5.96398 10.1386 6.04506 9.95964C6.40891 9.13913 6.61059 8.68087 6.61059 8.66996C6.61059 8.65468 6.7187 8.39718 6.81434 8.18114C7.21354 7.28425 7.62937 6.31317 7.62937 6.27607C7.62937 6.26516 7.60234 6.21497 7.56699 6.1626C7.53373 6.11022 7.50462 6.05785 7.50462 6.04476C7.50462 6.0273 7.24265 6.02075 6.65009 6.02075C5.92447 6.02075 5.79141 6.02512 5.76646 6.05349C5.74982 6.07094 5.72279 6.09276 5.70824 6.10149C5.68121 6.11895 5.60013 6.28698 5.39429 6.7627C5.334 6.90018 5.22796 7.13586 5.15935 7.28643C5.03044 7.5723 4.90569 7.86472 4.90569 7.88436C4.90569 7.89091 4.86411 7.98692 4.81421 8.09822C4.76431 8.20951 4.65828 8.44737 4.57719 8.62849C4.49818 8.80744 4.34433 9.15659 4.23621 9.40318C4.1281 9.64977 3.98879 9.97055 3.9285 10.1168L3.8183 10.3808L3.72682 10.1713C3.38584 9.39009 3.20912 8.97983 3.15922 8.84671C3.12803 8.76161 3.03863 8.55212 2.9617 8.37754C2.88477 8.20296 2.75171 7.89964 2.66646 7.70105C2.58122 7.50247 2.4835 7.27771 2.44815 7.19915C2.41488 7.12059 2.35251 6.97438 2.31301 6.87181C2.2735 6.76925 2.1841 6.55758 2.11549 6.39827C2.01153 6.1626 1.97827 6.10586 1.92837 6.08404C1.89718 6.07094 1.87015 6.0513 1.87015 6.04039C1.87015 6.02948 1.49175 6.02075 1.01354 6.02075L0.15486 6.02293L0.0779321 6.14296Z" fill="currentColor"/>
<path d="M8.95645 6.11459L8.86913 6.20624V7.78834L8.95437 7.87127L9.0417 7.95201L12.8798 7.97383L12.7966 8.12659C12.7488 8.20951 12.649 8.40591 12.5742 8.56303C12.3995 8.92746 12.1105 9.50138 11.8943 9.916C11.703 10.2826 11.5866 10.5161 11.5803 10.5488C11.5782 10.5619 11.5242 10.671 11.4577 10.7954L11.3391 11.018H9.51782L9.43258 11.1184L9.34733 11.221V12.7725L9.52198 12.9602H10.389L10.2913 13.15C10.2372 13.257 10.1582 13.4054 10.1166 13.4839C10.073 13.5625 9.9586 13.7872 9.86296 13.9858C9.76524 14.1844 9.56148 14.5859 9.40971 14.8805C9.25793 15.1751 9.04586 15.5919 8.9419 15.808C8.83794 16.024 8.73191 16.2357 8.70696 16.2771C8.6633 16.3513 8.66122 16.3732 8.66122 17.0736L8.6633 17.7938L8.74646 17.8876L8.82963 17.9793H15.1502L15.3353 17.7981V16.2117L15.25 16.1288L15.1627 16.048L10.8859 16.0262L11.0834 15.6443C11.1915 15.4348 11.3599 15.1009 11.4556 14.9023C11.678 14.4397 12.0461 13.7043 12.2353 13.3421C12.3163 13.1849 12.3891 13.0366 12.3953 13.0082L12.4078 12.9602H14.2666L14.4412 12.7725V11.2253L14.356 11.1228L14.2728 11.018L13.8175 11.0137L13.3642 11.0071L13.5306 10.6798C13.622 10.4986 13.7676 10.215 13.8549 10.0469C13.9422 9.8789 14.0836 9.59303 14.1709 9.41409C14.2583 9.23297 14.4412 8.87072 14.5764 8.60667C14.7115 8.34262 14.8862 7.99783 14.9652 7.8429L15.1045 7.55921V6.20624L15.0213 6.1124L14.9381 6.02075L9.04586 6.02293L8.95645 6.11459Z" fill="currentColor"/>
<path d="M16.434 6.13641C16.3966 6.19969 16.3675 6.26298 16.3675 6.27607C16.3675 6.28916 16.3904 6.35245 16.4174 6.41573C16.4444 6.4812 16.5047 6.62741 16.5504 6.74088C16.5962 6.85436 16.6877 7.06603 16.7521 7.21006C16.8166 7.35408 16.9164 7.57885 16.9746 7.71197C17.0328 7.8429 17.1181 8.0393 17.168 8.14841C17.2158 8.25534 17.2781 8.40373 17.3093 8.47574C17.4653 8.85544 17.6254 9.22424 18.0516 10.1779C18.0994 10.2848 18.1722 10.4572 18.2117 10.5597C18.2533 10.6623 18.3842 10.9656 18.5028 11.2362C18.8333 11.9782 19.062 12.5063 19.0808 12.5652C19.0891 12.5958 19.1286 12.6874 19.166 12.7725L19.2367 12.9253L19.2388 17.7938L19.3219 17.8854L19.4051 17.9793H20.9416L21.0144 17.8963L21.085 17.8156L21.0871 12.9645L21.189 12.7376C21.3907 12.2881 21.6755 11.6378 21.7005 11.5636C21.7296 11.4785 21.8897 11.1053 21.9708 10.9264C22.0581 10.7409 22.5342 9.63886 22.5633 9.55593C22.5799 9.51447 22.6735 9.29407 22.7754 9.0693C22.8752 8.84235 22.9584 8.65468 22.9584 8.65032C22.9584 8.64595 23.0436 8.45392 23.1476 8.22042C23.2515 7.98911 23.3596 7.73815 23.3867 7.66396C23.4137 7.58976 23.5052 7.37154 23.5925 7.17732C23.6777 6.98311 23.7484 6.82162 23.7484 6.81726C23.7484 6.81289 23.8046 6.68414 23.8732 6.53357L24 6.2608L23.9459 6.19969C23.9168 6.16696 23.8815 6.11459 23.8669 6.07967L23.842 6.02075H22.9854C22.5134 6.02075 22.1267 6.02948 22.1267 6.03821C22.1267 6.04912 22.1038 6.06876 22.0747 6.08185C22.0207 6.10804 21.8543 6.4441 21.7213 6.79544C21.6901 6.87836 21.6173 7.05076 21.5591 7.17732C21.503 7.30389 21.4073 7.51993 21.347 7.65741C21.2867 7.79489 21.1869 8.02184 21.1225 8.15932C20.9624 8.51502 20.8563 8.75506 20.8501 8.78125C20.8439 8.80743 20.821 8.86199 20.6131 9.33771C20.5216 9.5472 20.3865 9.85271 20.3137 10.0142C20.2388 10.1757 20.1744 10.3241 20.1681 10.3415C20.1578 10.3721 20.0143 10.0797 19.9748 9.94655C19.9665 9.91818 19.875 9.70214 19.771 9.46864C19.4113 8.64813 19.1494 8.03711 19.0912 7.88654C19.06 7.80144 18.9747 7.60067 18.904 7.43919C18.8333 7.27771 18.7024 6.97656 18.613 6.77361C18.5235 6.56849 18.4217 6.33499 18.3863 6.25425C18.3427 6.15823 18.3032 6.09713 18.2699 6.08185C18.2408 6.06876 18.2179 6.04912 18.2179 6.03821C18.2179 6.02948 17.8312 6.02075 17.3592 6.02075H16.5005L16.434 6.13641Z" fill="currentColor"/>
</svg>
